<?xml version="1.0" standalone="no"?>
<!DOCTYPE svg PUBLIC "-//W3C//DTD SVG 20010904//EN"
 "http://www.w3.org/TR/2001/REC-SVG-20010904/DTD/svg10.dtd">
<svg version="1.0" xmlns="http://www.w3.org/2000/svg"
 width="600.000000pt" height="600.000000pt" viewBox="0 0 600.000000 600.000000"
 preserveAspectRatio="xMidYMid meet">

<g transform="translate(0.000000,600.000000) scale(0.100000,-0.100000)"
fill="white" stroke="none">
<path d="M4158 5295 c-225 -36 -376 -113 -535 -274 -73 -75 -98 -84 -127 -52
-16 17 -28 19 -98 16 -50 -3 -90 -11 -104 -20 -13 -9 -24 -13 -24 -10 0 4 -13
-3 -28 -14 -16 -11 -40 -23 -55 -26 -15 -4 -27 -11 -27 -16 0 -5 -5 -9 -11 -9
-6 0 -44 -16 -85 -35 -40 -19 -79 -35 -86 -35 -7 0 -22 -7 -32 -15 -11 -8 -30
-15 -41 -15 -12 0 -42 -15 -66 -33 -24 -19 -61 -37 -82 -41 -20 -4 -53 -20
-71 -36 -19 -17 -39 -30 -46 -30 -7 0 -27 -9 -44 -19 -17 -10 -60 -22 -96 -26
-197 -22 -316 -96 -445 -280 -27 -38 -54 -72 -58 -74 -5 -2 -17 -12 -25 -22
-9 -11 -22 -19 -29 -19 -7 0 -13 -4 -13 -10 0 -5 -5 -10 -10 -10 -6 0 -23 -11
-37 -24 -14 -14 -46 -35 -70 -47 -23 -12 -43 -26 -43 -30 0 -4 -8 -10 -18 -13
-10 -3 -33 -21 -52 -40 -46 -44 -121 -101 -161 -122 -18 -9 -47 -33 -63 -52
-17 -20 -55 -59 -85 -87 -29 -27 -70 -68 -90 -89 -50 -55 -75 -77 -110 -104
-17 -13 -31 -28 -31 -35 0 -6 -15 -24 -33 -41 -34 -32 -77 -98 -77 -118 0 -6
-7 -19 -16 -29 -22 -25 -24 -249 -2 -249 4 0 14 -13 23 -30 9 -16 22 -30 30
-30 8 0 15 -9 15 -19 0 -10 7 -22 15 -25 29 -11 7 -101 -48 -206 -51 -98 -70
-177 -48 -204 7 -8 11 -18 9 -22 -1 -5 6 -23 15 -41 9 -18 17 -37 17 -42 0 -6
18 -29 40 -53 22 -24 40 -46 40 -50 0 -9 105 -79 140 -93 14 -6 39 -10 57 -10
17 1 29 -3 26 -8 -3 -5 8 -6 26 -2 20 4 31 3 31 -4 0 -14 -23 -14 -171 0 -116
11 -120 11 -206 -16 -48 -15 -90 -29 -92 -31 -5 -4 61 -82 193 -227 l98 -109
-8 -40 c-8 -37 -13 -41 -59 -57 l-50 -17 -3 -56 c-4 -69 31 -246 63 -315 l23
-51 -80 -123 c-86 -132 -122 -198 -114 -206 2 -3 32 4 65 16 34 12 70 21 82
21 12 0 46 26 84 64 l63 65 41 -39 c52 -50 81 -57 130 -35 36 16 41 16 110 -5
l72 -22 72 27 c39 14 178 71 308 126 131 54 239 99 242 99 2 0 10 -13 17 -30
7 -16 16 -30 21 -30 5 0 6 -7 3 -15 -4 -8 -1 -15 5 -15 6 0 10 -16 8 -40 -3
-40 -47 -112 -148 -238 -23 -29 -40 -54 -37 -57 2 -2 20 0 39 5 19 5 74 16
122 24 99 18 114 13 147 -40 22 -34 112 -86 134 -78 8 3 17 1 20 -4 3 -6 30
-4 67 5 34 8 66 12 73 10 20 -7 128 58 182 110 13 13 28 23 34 23 5 0 10 5 10
10 0 6 12 16 28 23 15 6 35 22 45 34 10 12 34 25 55 28 20 4 46 11 57 16 11 5
47 6 80 3 33 -3 110 -7 170 -9 111 -3 120 -4 186 -31 19 -9 39 -14 45 -13 5 1
11 0 14 -1 16 -7 71 -6 76 1 3 5 13 9 23 9 9 0 27 9 39 20 12 11 28 20 37 20
16 0 27 8 70 48 13 12 35 22 49 22 13 0 37 11 53 24 15 13 46 29 68 36 22 7
45 18 50 24 6 7 26 13 45 13 59 1 93 14 134 52 82 77 176 173 176 180 0 4 19
22 43 39 81 60 143 127 176 192 19 36 40 72 46 80 7 8 18 35 25 60 7 25 16 50
20 55 5 6 9 21 9 35 0 14 1 34 2 45 0 11 -2 52 -7 92 -7 71 -6 73 28 125 20
29 50 80 68 113 18 33 36 65 41 71 5 6 7 13 4 15 -2 3 1 24 6 48 8 34 7 46 -3
52 -10 6 -10 11 -1 20 9 9 9 18 2 31 -13 23 -7 84 10 116 16 30 27 145 23 252
-2 67 -6 88 -20 98 -9 7 -16 18 -14 23 1 6 -4 17 -12 25 -9 8 -12 22 -9 30 3
9 1 19 -5 23 -18 11 20 73 68 109 25 19 46 41 48 48 2 8 7 14 10 14 15 0 36
48 47 110 10 52 10 71 -1 102 -7 21 -14 42 -15 46 -2 8 -7 24 -14 48 -3 9 -14
18 -25 21 -11 3 -18 9 -15 13 3 5 1 11 -5 15 -5 3 -10 15 -10 25 0 13 -5 17
-14 14 -10 -4 -16 2 -18 18 -2 17 -11 24 -30 26 -16 2 -28 8 -28 13 0 5 -7 9
-15 9 -29 0 -14 31 50 108 61 72 150 229 158 277 1 11 5 25 9 30 3 6 13 45 22
87 28 135 18 301 -25 438 -22 68 -90 205 -116 230 -8 8 -24 30 -35 49 -16 28
-22 32 -30 20 -8 -11 -9 -11 -5 2 6 19 -45 73 -58 62 -4 -5 -5 -3 -1 4 4 8
-20 32 -66 66 -87 65 -134 90 -151 81 -7 -4 -9 -4 -5 1 17 18 -128 68 -262 90
-110 17 -108 17 -222 0z m9 -430 c81 -47 150 -91 154 -98 8 -14 15 -145 8
-150 -11 -9 -117 -67 -123 -67 -3 0 -6 28 -6 63 0 85 -4 90 -147 164 l-53 27
-42 -22 c-65 -33 -126 -68 -142 -81 -10 -8 -14 -41 -15 -119 -2 -93 1 -110 16
-124 40 -34 158 -98 183 -98 14 0 51 15 81 33 30 18 106 61 169 97 63 35 117
67 120 70 14 17 141 80 162 80 25 0 272 -133 313 -168 25 -22 25 -23 25 -195
0 -137 -3 -177 -15 -194 -8 -12 -50 -40 -92 -64 -43 -23 -107 -59 -142 -81
-34 -21 -72 -38 -83 -38 -23 0 -280 141 -316 174 -20 18 -22 28 -20 90 l3 70
40 22 c22 13 45 27 52 33 25 23 33 10 33 -52 0 -35 6 -70 13 -79 18 -23 144
-98 175 -104 34 -6 191 82 210 117 14 27 14 172 0 204 -14 31 -156 108 -198
108 -24 0 -56 -13 -100 -40 -202 -125 -402 -233 -430 -233 -17 0 -48 11 -71
25 -22 14 -45 23 -51 19 -6 -4 -8 -3 -5 3 4 6 -1 14 -10 18 -44 16 -175 100
-184 117 -6 11 -10 93 -10 191 l1 172 30 26 c17 14 43 32 58 40 15 7 43 23 62
35 67 40 173 94 186 94 8 0 80 -38 161 -85z m-756 -242 c-18 -37 -31 -91 -25
-107 4 -9 0 -24 -8 -34 -8 -9 -18 -26 -23 -37 -7 -19 -7 -19 -18 3 -7 16 -19
22 -44 22 l-34 0 22 29 c18 25 20 34 11 60 -12 35 -7 39 20 14 17 -15 20 -14
54 25 36 43 61 56 45 25z m-656 -68 c110 -24 189 -53 256 -96 l62 -41 -79 -31
c-101 -41 -154 -78 -236 -165 -136 -144 -177 -304 -112 -433 27 -54 69 -92
139 -126 47 -23 48 -24 15 -20 l-35 6 30 -14 c38 -17 190 -3 238 21 28 15 30
15 19 1 -85 -102 -370 -173 -590 -147 -175 21 -373 101 -420 170 -62 91 -85
293 -49 426 46 169 152 322 275 399 99 61 326 84 487 50z m347 -274 c45 -49
63 -119 55 -215 -6 -74 -23 -136 -37 -136 -5 0 -14 26 -20 58 -6 31 -25 109
-42 172 -45 172 -44 160 -15 160 16 0 37 -13 59 -39z m672 -73 c8 -13 1 -30
-26 -75 -38 -60 -41 -78 -10 -50 19 18 32 14 32 -10 0 -9 -17 -13 -64 -13 -36
0 -68 -4 -71 -10 -4 -6 8 -10 29 -10 36 0 66 -21 66 -45 0 -24 -40 -37 -96
-33 -44 4 -52 2 -43 -9 7 -7 29 -16 49 -19 42 -7 64 -39 54 -78 -4 -18 1 -29
23 -45 l28 -22 -25 -19 c-23 -18 -102 -50 -122 -50 -5 0 -4 10 3 21 6 13 10
54 7 101 -3 80 -4 81 -45 117 l-41 37 57 60 c31 33 80 86 110 118 54 58 66 63
85 34z m-1062 -220 c-4 -105 10 -201 35 -250 16 -32 4 -37 -21 -9 -27 30 -56
117 -56 171 0 68 27 190 43 190 1 0 1 -46 -1 -102z m-772 -12 c0 -67 -2 -74
-22 -79 -11 -3 -30 1 -42 9 -11 7 -32 14 -46 14 -24 -1 -24 -1 6 -14 32 -14
53 -36 35 -36 -5 0 -13 5 -16 10 -3 6 -15 10 -27 10 -20 0 -19 -1 3 -19 l23
-18 -38 -46 c-37 -45 -38 -45 -57 -26 -10 10 -30 19 -44 19 -14 0 -25 3 -25 6
0 16 79 102 158 170 46 41 86 74 88 74 2 0 4 -33 4 -74z m1858 24 c3 -39 -22
-71 -65 -85 -31 -9 -29 8 3 40 21 21 25 33 20 56 -5 27 -3 30 17 27 17 -2 23
-10 25 -38z m-255 -58 c15 -16 31 -43 36 -60 13 -45 4 -40 -15 8 -9 22 -28 49
-42 60 -13 11 -20 20 -15 20 5 0 21 -13 36 -28z m-29 -11 c48 -53 61 -181 24
-234 -28 -41 -169 -206 -197 -231 l-21 -19 0 76 c0 51 -6 89 -19 119 -19 46
-74 101 -111 113 -19 6 -13 12 42 44 35 20 101 63 148 94 47 31 92 57 101 57
9 0 24 -9 33 -19z m282 -60 c-24 -45 -77 -54 -76 -13 1 18 82 65 88 51 2 -4
-4 -21 -12 -38z m-693 -92 c-10 -36 -77 -99 -106 -99 -20 0 -27 5 -27 19 0 21
15 35 79 73 56 33 61 34 54 7z m-1351 -20 c24 -28 7 -65 -22 -49 -23 12 -57
13 -64 1 -3 -5 6 -8 21 -8 29 0 57 -29 48 -51 -3 -8 -5 -28 -5 -45 0 -27 -6
-35 -38 -49 -44 -20 -69 -55 -53 -71 14 -14 14 -37 1 -37 -15 0 -50 79 -50
115 0 22 9 37 34 58 19 15 44 27 55 27 12 0 21 5 21 11 0 16 -59 3 -82 -18
-23 -20 -23 -15 1 40 20 47 46 63 81 52 11 -4 20 -2 20 4 0 6 -13 11 -30 11
-32 0 -37 9 -18 28 17 17 58 7 80 -19z m1469 -32 c42 -28 75 -87 83 -147 l6
-45 -19 54 c-11 30 -33 67 -52 85 -20 18 -25 21 -12 6 35 -40 54 -97 59 -174
l5 -71 -21 49 c-23 53 -69 124 -95 146 -10 8 -3 -6 14 -32 63 -93 85 -170 61
-208 -8 -12 -10 -11 -10 7 0 55 -79 202 -117 217 -7 3 6 -18 27 -47 65 -86 90
-194 53 -224 -10 -7 -57 -40 -104 -73 l-87 -59 -6 60 c-4 33 -18 88 -31 123
-31 83 -35 134 -11 148 47 26 125 100 160 151 22 31 45 57 51 57 7 0 27 -10
46 -23z m-945 -196 c157 -53 345 -62 514 -25 20 4 22 3 8 -5 -35 -23 -195 -53
-283 -54 -169 -1 -363 74 -421 161 -13 19 -7 18 38 -12 29 -19 94 -49 144 -65z
m-515 -4 c15 -18 54 -48 88 -66 33 -17 61 -35 61 -39 -1 -4 -16 -14 -36 -23
-32 -16 -38 -16 -77 -1 -55 21 -54 18 -28 52 29 39 10 39 -23 -1 -19 -23 -31
-29 -46 -24 l-21 7 20 34 c20 34 16 45 -7 22 -22 -22 -12 5 11 30 l22 25 -22
-12 c-33 -17 -41 -13 -14 9 32 27 42 25 72 -13z m1198 -147 c20 -56 33 -190
19 -190 -4 0 -8 13 -8 28 0 42 -39 191 -62 236 -20 39 -20 40 -2 53 18 13 20
11 26 -29 4 -24 16 -68 27 -98z m-664 63 c100 -34 210 -46 302 -33 88 12 174
33 228 56 21 8 41 12 46 7 21 -21 69 -263 69 -350 l0 -36 -68 65 c-69 67 -161
132 -171 122 -3 -3 5 -14 19 -25 l25 -20 -30 6 c-24 4 -22 2 10 -10 44 -17 67
-35 45 -35 -7 0 7 -10 31 -23 26 -14 78 -62 127 -118 128 -144 214 -234 247
-258 20 -15 26 -24 17 -28 -20 -8 -52 -78 -59 -128 -4 -33 -10 -45 -22 -45
-19 0 -146 40 -203 65 -35 14 -51 35 -28 35 34 0 120 112 134 175 4 19 -6 6
-27 -35 -40 -77 -102 -130 -150 -129 -29 0 -30 1 -13 12 65 41 127 130 125
181 0 12 -9 -2 -20 -30 -24 -65 -75 -122 -116 -133 -26 -8 -38 -5 -65 13 -28
19 -33 27 -30 56 5 53 65 173 114 226 30 33 35 42 17 31 -62 -41 -140 -169
-142 -236 -1 -22 -4 -41 -7 -41 -3 0 -18 9 -35 20 -16 12 -69 41 -117 66 -60
31 -102 62 -133 96 -53 59 -60 50 -10 -14 20 -25 61 -60 95 -79 33 -19 117
-73 186 -121 69 -48 134 -90 144 -93 30 -9 25 -20 -29 -59 -83 -61 -187 -105
-281 -117 -143 -19 -348 0 -408 39 -19 12 1 241 39 448 17 93 31 201 32 241 2
62 -1 75 -20 95 -29 30 -29 34 4 113 21 51 30 64 42 59 9 -4 48 -18 86 -31z
m1560 -80 l-17 -45 43 -45 44 -45 -57 7 -57 6 -18 -60 c-17 -57 -33 -80 -33
-46 0 7 -5 36 -11 63 l-10 49 -72 9 -72 9 64 39 c63 39 63 39 57 77 -7 45 5
51 40 18 l23 -22 43 26 c24 14 45 21 47 15 2 -5 -5 -30 -14 -55z m-1909 -1
c10 -31 10 -43 1 -51 -19 -15 -65 -1 -81 24 -15 22 -14 25 15 50 18 14 36 24
43 22 6 -2 16 -22 22 -45z m111 -18 c18 -7 49 -25 68 -40 31 -23 35 -32 35
-71 0 -24 -16 -124 -34 -221 -45 -228 -56 -313 -56 -424 0 -50 -5 -108 -12
-130 -10 -35 -16 -40 -66 -54 -78 -23 -232 -16 -263 11 -77 69 -100 316 -54
610 23 154 74 293 114 315 33 17 42 3 24 -36 -25 -52 -11 -68 63 -72 32 -1 77
3 99 11 36 12 40 18 43 50 2 26 -3 42 -18 57 l-22 22 24 -7 c12 -4 38 -13 55
-21z m2483 -14 c-10 -6 -10 -12 0 -26 9 -15 10 -15 6 -2 -3 9 2 19 10 22 11 4
15 0 12 -17 -4 -26 -36 -30 -51 -5 -12 19 8 52 25 42 6 -4 6 -9 -2 -14z
m-2544 -16 c8 -33 -16 -51 -82 -59 -67 -9 -94 -1 -87 26 8 29 18 31 57 12 35
-16 37 -16 64 4 15 12 26 26 25 32 -6 24 17 9 23 -15z m-544 -291 c48 -43 -8
-122 -65 -92 -27 15 -37 28 -37 53 0 48 64 73 102 39z m2443 -1 c38 -7 40 -9
43 -49 4 -48 -18 -96 -83 -188 -51 -72 -187 -204 -244 -237 -22 -12 -41 -26
-41 -30 0 -12 61 -58 85 -64 54 -13 235 71 368 172 31 24 57 42 57 40 0 -3
-16 -37 -35 -77 -82 -172 -81 -348 3 -380 24 -9 11 -18 -198 -126 -124 -64
-310 -151 -415 -193 -104 -43 -232 -96 -284 -119 -51 -22 -97 -38 -102 -35 -5
3 -9 14 -9 25 0 21 -42 70 -70 82 -12 6 -13 8 -1 13 7 4 21 14 30 23 9 9 42
35 73 59 111 85 195 226 182 308 -12 83 -74 153 -181 208 -52 26 -53 27 -53
72 l0 46 33 -5 c17 -4 93 -11 167 -18 152 -13 276 -8 334 12 37 13 47 23 60
59 3 8 14 26 23 39 l18 24 -30 -5 c-17 -3 -50 -3 -75 1 -81 12 -112 -8 -38
-25 40 -9 70 -36 56 -50 -12 -11 -245 -16 -283 -5 -28 7 -36 7 -32 -2 3 -8 -8
-12 -30 -12 l-35 0 5 52 c6 55 33 123 49 123 5 0 35 18 65 40 61 43 113 54
113 22 0 -9 -9 -23 -21 -30 -33 -21 -17 -23 42 -6 66 20 142 13 181 -16 33
-24 38 -25 38 -5 0 39 -116 75 -183 57 -34 -10 -36 -9 -39 16 -3 25 -6 27 -43
25 -28 -2 -57 -15 -97 -43 -54 -38 -57 -39 -77 -22 -21 17 -16 19 189 117 116
55 221 103 233 107 30 8 202 9 252 0z m172 -48 c47 -18 51 -26 60 -139 l6 -81
-49 -43 c-54 -48 -134 -105 -139 -99 -1 1 6 37 17 78 15 58 18 98 15 175 -2
55 -8 109 -12 119 -8 17 -5 19 26 12 19 -3 53 -14 76 -22z m151 -94 c-16 -47
-28 -45 -28 5 0 42 1 45 19 35 17 -9 18 -14 9 -40z m222 -2 c128 -28 170 -49
170 -88 0 -17 -4 -30 -9 -30 -5 0 -36 -26 -68 -58 -66 -66 -176 -141 -343
-234 -63 -35 -127 -72 -142 -82 -14 -9 -28 -13 -31 -9 -8 15 24 147 51 208 14
33 44 86 66 118 71 101 106 161 106 178 0 33 38 32 200 -3z m-535 -180 c-22
-119 -28 -134 -66 -154 -32 -16 -32 -16 -25 8 4 12 17 61 29 108 24 92 69 179
75 147 2 -10 -4 -59 -13 -109z m789 -111 c-50 -71 -129 -122 -462 -302 -79
-42 -146 -74 -149 -72 -2 3 17 18 44 33 149 84 296 173 353 212 105 72 191
135 214 158 33 33 33 18 0 -29z m-1756 18 c3 -2 -18 -30 -46 -62 -135 -157
-425 -254 -663 -224 -50 6 -111 21 -135 33 l-45 21 23 26 c12 14 25 30 29 34
3 4 45 1 94 -8 100 -17 257 -19 359 -5 68 10 133 35 170 64 34 27 10 29 -31 2
-57 -37 -131 -50 -298 -51 -166 0 -253 9 -281 30 -33 24 -7 27 63 9 102 -28
332 -26 428 4 76 23 192 80 240 119 22 17 38 22 59 18 16 -3 32 -7 34 -10z
m57 -26 c4 -6 4 -26 0 -46 -6 -31 -9 -34 -31 -29 -33 9 -31 -11 4 -26 42 -19
168 -96 181 -112 9 -11 -1 -14 -57 -19 -71 -6 -177 -37 -218 -64 -37 -24 -23
-26 27 -5 59 25 177 52 230 52 39 0 79 -21 79 -40 0 -4 -42 -10 -92 -12 -54
-3 -112 -13 -138 -23 -73 -29 -68 -35 11 -13 90 24 199 29 222 9 22 -18 21
-36 -4 -88 -21 -43 -21 -43 -75 -43 -30 0 -79 9 -109 19 -30 11 -55 16 -55 12
0 -13 73 -43 134 -55 l59 -12 -29 -32 -29 -33 -72 35 c-40 19 -90 54 -114 78
-39 40 -41 41 -26 12 22 -42 70 -81 141 -115 46 -22 55 -30 42 -35 -43 -17
-190 82 -237 160 -11 18 -19 24 -19 15 0 -23 50 -89 91 -120 19 -14 58 -39 88
-54 l53 -29 -32 -27 c-30 -25 -36 -26 -113 -22 -68 4 -98 1 -177 -21 -104 -28
-175 -33 -203 -12 -16 12 -12 20 44 99 33 46 87 116 120 153 32 38 59 73 59
78 0 5 7 18 17 28 27 30 8 31 -27 1 -31 -25 -32 -26 -21 -4 7 12 29 41 49 63
25 28 30 38 16 30 -33 -18 -104 -102 -128 -152 -11 -25 -25 -48 -31 -52 -13
-9 -238 0 -293 13 -77 17 -147 57 -201 113 -52 56 -64 81 -33 72 148 -45 385
-34 534 25 104 41 203 104 268 170 66 67 84 78 95 58z m-750 -448 c92 -35 148
-43 260 -39 58 1 105 2 105 0 0 -2 -18 -24 -39 -50 -55 -65 -109 -158 -126
-215 -13 -42 -13 -53 0 -76 30 -60 124 -91 300 -100 l120 -6 -98 -43 c-54 -24
-164 -75 -245 -113 -210 -101 -342 -161 -552 -251 l-184 -80 -31 18 c-61 35
-123 95 -164 157 -22 35 -41 69 -41 76 0 7 61 76 135 154 114 119 152 167 131
167 -2 0 -74 -34 -161 -75 -86 -41 -161 -75 -166 -75 -5 0 -9 8 -10 18 0 15
-1 15 -8 -2 -6 -16 -10 -12 -25 25 -27 68 -56 207 -56 276 l0 61 73 34 c39 18
191 89 336 158 l264 125 62 -61 c45 -44 79 -68 120 -83z m-855 85 c208 -20
220 -22 220 -42 0 -25 -25 -27 -155 -9 -149 20 -181 16 -67 -9 45 -10 82 -21
82 -25 0 -10 -46 -30 -185 -81 l-110 -40 -88 92 c-49 51 -89 97 -90 102 -1 4
14 15 33 22 40 16 96 14 360 -10z m-22 -345 c3 -68 3 -69 -30 -89 -18 -11 -43
-23 -55 -27 -22 -6 -23 -4 -23 57 0 35 4 69 8 76 9 14 71 51 87 51 6 1 11 -30
13 -68z m2182 35 c0 -4 -492 -461 -719 -668 -92 -84 -119 -99 -188 -104 -12 0
-28 -5 -35 -11 -18 -14 -189 -65 -195 -59 -3 3 21 40 53 81 33 42 101 133 152
203 51 70 109 150 130 177 40 52 29 46 282 158 81 36 515 226 518 226 1 1 2
-1 2 -3z m-611 -15 c20 -13 -11 -19 -104 -24 -38 -2 -113 -11 -166 -21 -76
-14 -104 -15 -137 -7 -28 8 -40 16 -36 25 5 12 11 12 42 -1 43 -18 109 -13
198 16 63 20 179 27 203 12z m-4 -70 c62 -28 49 -46 -34 -46 -33 0 -57 -3 -54
-7 7 -12 99 -9 128 4 28 13 30 12 39 -18 5 -17 0 -23 -33 -32 -54 -17 -96 -6
-171 45 -36 23 -71 43 -78 43 -16 0 101 -85 141 -102 15 -7 27 -16 27 -20 0
-12 -254 -2 -317 12 -96 21 -141 69 -113 120 9 16 15 18 30 10 26 -14 155 -11
215 5 67 18 160 12 220 -14z m-1705 -85 c0 -24 3 -51 6 -59 3 -10 -3 -17 -21
-21 -37 -9 -30 -42 8 -38 25 3 27 1 27 -33 0 -28 -5 -38 -20 -42 -24 -6 -23
-2 -9 -59 7 -26 17 -44 25 -44 12 0 12 -5 -1 -30 -9 -17 -20 -28 -25 -25 -21
13 -90 284 -90 357 0 10 13 20 38 26 61 16 62 16 62 -32z m170 -67 c6 -23 9
-46 7 -53 -5 -11 -105 -52 -112 -44 -2 2 -8 23 -14 46 l-9 43 51 24 c29 13 55
24 59 24 4 1 12 -17 18 -40z m-21 -236 c-18 -21 -58 -67 -90 -103 -137 -156
-172 -202 -148 -195 13 4 26 11 29 15 3 4 53 61 112 127 168 186 229 220 76
42 -163 -190 -182 -209 -225 -225 -24 -10 -46 -14 -49 -11 -4 3 16 40 42 81
27 42 76 119 109 171 51 81 66 97 105 114 67 30 76 26 39 -16z m230 -177 l42
-43 -46 -28 c-40 -23 -51 -25 -70 -15 -26 14 -75 55 -75 63 0 6 90 67 100 67
3 0 25 -20 49 -44z m-185 -43 c4 -11 -2 -26 -18 -42 -25 -25 -25 -25 -46 -6
l-22 20 27 22 c31 27 50 29 59 6z m63 -60 c2 -6 -5 -13 -15 -15 -15 -4 -18 -1
-14 14 5 19 23 20 29 1z"/>
<path d="M2736 4278 c-154 -157 -216 -334 -170 -487 15 -53 66 -122 80 -108 4
4 -2 17 -13 30 -39 41 -58 106 -58 197 1 71 5 96 29 150 40 92 91 165 165 238
35 34 60 62 56 62 -5 0 -45 -37 -89 -82z"/>
<path d="M2241 3985 c-151 -47 -177 -247 -43 -339 34 -24 56 -31 107 -34 l65
-4 44 43 c86 86 85 209 -2 302 -37 39 -9 33 32 -7 61 -62 72 -156 27 -245 -24
-46 -26 -55 -10 -45 24 14 51 97 51 155 0 146 -118 222 -271 174z m128 -30
c40 -20 81 -106 80 -164 -1 -78 -18 -112 -70 -139 -116 -59 -239 28 -239 170
0 65 26 113 73 133 42 19 121 19 156 0z"/>
<path d="M2203 3878 c-38 -41 -47 -78 -29 -121 31 -75 110 -100 160 -51 45 46
31 135 -30 183 -37 29 -65 26 -101 -11z m106 -23 c55 -63 35 -155 -33 -155
-59 0 -112 81 -86 132 36 68 73 75 119 23z"/>
<path d="M2265 3843 c27 -6 45 -31 45 -64 0 -15 -6 -30 -12 -32 -8 -4 -7 -6 3
-6 22 -1 33 43 18 72 -15 28 -29 37 -54 36 l-20 -1 20 -5z"/>
<path d="M2197 3449 c8 -8 6 -20 -7 -43 -21 -37 -34 -86 -22 -86 4 0 16 24 26
53 l18 53 56 -28 c80 -38 168 -51 308 -46 123 5 194 22 247 60 50 35 28 37
-40 2 -141 -71 -376 -69 -520 4 -23 12 -44 26 -48 32 -3 5 -11 10 -18 10 -8 0
-8 -3 0 -11z"/>
<path d="M2755 3332 c-30 -12 -78 -15 -190 -15 -82 0 -168 3 -190 6 -36 6 -38
5 -15 -5 16 -8 87 -12 205 -13 154 0 185 3 213 18 17 10 32 20 32 22 0 7 -10
5 -55 -13z"/>
<path d="M2588 3253 c7 -3 16 -2 19 1 4 3 -2 6 -13 5 -11 0 -14 -3 -6 -6z"/>
<path d="M2658 3243 c7 -3 16 -2 19 1 4 3 -2 6 -13 5 -11 0 -14 -3 -6 -6z"/>
<path d="M2728 3193 c7 -3 16 -2 19 1 4 3 -2 6 -13 5 -11 0 -14 -3 -6 -6z"/>
<path d="M2268 3150 c-19 -63 3 -161 51 -226 26 -37 126 -99 189 -119 45 -13
21 12 -33 34 -132 55 -186 126 -195 256 -3 56 -7 73 -12 55z"/>
<path d="M2805 2926 c-41 -62 -69 -176 -44 -176 6 0 9 7 6 15 -8 18 19 110 44
153 21 37 17 43 -6 8z"/>
<path d="M2176 2844 c-10 -75 -6 -246 7 -283 13 -37 57 -76 78 -69 9 3 2 11
-18 21 -47 25 -58 68 -58 235 1 78 0 142 -1 142 -1 0 -4 -21 -8 -46z"/>
<path d="M2848 2799 c-50 -52 -53 -61 -10 -30 21 15 73 84 60 80 -2 -1 -24
-23 -50 -50z"/>
<path d="M2338 2733 c6 -2 18 -2 25 0 6 3 1 5 -13 5 -14 0 -19 -2 -12 -5z"/>
<path d="M2433 2723 c26 -2 67 -2 90 0 23 2 2 3 -48 3 -49 0 -68 -1 -42 -3z"/>
<path d="M3000 2655 c14 -8 41 -14 60 -14 46 0 21 14 -40 23 -43 6 -44 5 -20
-9z"/>
<path d="M2373 2493 c15 -2 37 -2 50 0 12 2 0 4 -28 4 -27 0 -38 -2 -22 -4z"/>
<path d="M1890 3345 c-7 -8 -8 -15 -2 -15 5 0 15 7 22 15 7 8 8 15 2 15 -5 0
-15 -7 -22 -15z"/>
<path d="M1803 3174 c-59 -85 -101 -362 -83 -552 5 -58 13 -109 17 -113 5 -5
8 74 9 174 1 190 18 329 52 429 22 63 34 68 147 61 64 -3 76 -2 61 8 -10 6
-55 14 -101 16 -81 6 -82 5 -102 -23z"/>
<path d="M1801 3068 c-36 -111 -69 -528 -43 -528 8 0 12 31 12 98 0 121 16
307 34 392 15 72 14 90 -3 38z"/>
<path d="M1905 2936 c-20 -30 -17 -55 8 -70 15 -9 22 -7 38 13 26 32 22 75 -8
79 -14 2 -27 -5 -38 -22z m41 -11 c6 -16 -12 -45 -27 -45 -10 0 -12 44 -2 53
11 11 23 8 29 -8z"/>
<path d="M1881 2794 c-20 -23 -30 -76 -37 -196 l-7 -108 51 0 50 0 6 63 c16
188 17 240 4 248 -20 13 -52 10 -67 -7z"/>
<path d="M3640 2966 c-41 -12 -88 -30 -105 -40 -16 -9 -21 -14 -10 -10 163 56
172 58 262 58 51 1 93 4 93 9 0 17 -166 6 -240 -17z"/>
<path d="M3480 2741 c0 -4 21 -11 48 -14 26 -3 60 -12 77 -21 22 -12 31 -13
37 -3 13 20 10 25 -23 36 -38 13 -139 15 -139 2z"/>
<path d="M3690 2116 c-370 -163 -667 -305 -638 -306 4 0 80 34 170 76 165 77
325 150 586 264 78 34 142 66 142 71 0 11 32 24 -260 -105z"/>
<path d="M2820 2535 c-89 -91 -184 -134 -381 -175 l-94 -19 75 4 c94 5 175 26
267 71 76 36 189 131 182 152 -3 8 -23 -6 -49 -33z"/>
<path d="M2240 2226 c0 -4 24 -18 54 -32 94 -43 336 -61 336 -24 0 4 -60 10
-132 13 -117 5 -176 15 -240 42 -10 4 -18 4 -18 1z"/>
<path d="M2684 2068 c-51 -55 -104 -124 -104 -137 0 -19 16 -12 27 12 6 12 34
51 62 86 28 35 51 65 51 67 0 8 -7 3 -36 -28z"/>
<path d="M1875 2146 c-270 -117 -489 -226 -454 -226 8 0 19 4 25 9 12 11 243
118 404 188 115 49 159 74 135 73 -6 -1 -55 -20 -110 -44z"/>
<path d="M2145 2014 c8 -20 15 -38 15 -41 0 -2 -20 8 -45 23 -25 14 -48 24
-51 22 -2 -3 7 -29 21 -59 23 -49 26 -45 9 12 -7 20 -5 20 45 -5 28 -15 51
-22 51 -16 0 18 -42 100 -51 100 -5 0 -2 -16 6 -36z"/>
<path d="M1990 1960 c-34 -34 -17 -80 30 -80 53 0 78 50 42 83 -25 22 -48 21
-72 -3z m74 -12 c16 -26 -4 -53 -40 -53 -23 0 -30 5 -32 23 -7 47 47 69 72 30z"/>
<path d="M1880 1910 c-24 -46 11 -113 42 -82 11 11 10 12 -4 7 -26 -10 -45 36
-30 70 14 30 7 34 -8 5z"/>
<path d="M1925 1900 c-16 -11 -25 -20 -19 -20 5 0 15 5 22 12 9 9 14 4 23 -20
6 -18 15 -32 21 -32 5 0 6 5 2 12 -4 6 -10 24 -13 40 l-6 28 -30 -20z"/>
<path d="M1830 1876 c0 -21 -4 -27 -15 -22 -44 18 -51 18 -31 2 11 -9 26 -16
33 -16 7 0 13 -11 13 -25 0 -14 5 -25 10 -25 7 0 8 19 4 53 -8 59 -14 74 -14
33z"/>
<path d="M1676 1795 c9 -22 18 -46 21 -53 3 -8 12 -10 22 -7 9 4 28 12 44 17
15 5 27 14 27 19 0 5 -13 3 -30 -6 -40 -21 -57 -19 -63 8 -4 12 -13 31 -22 42
-14 18 -14 15 1 -20z"/>
<path d="M1587 1777 c-22 -16 -20 -65 4 -80 9 -5 28 -7 42 -3 30 7 46 49 30
75 -13 21 -53 25 -76 8z m71 -29 c4 -35 -37 -60 -63 -38 -32 27 -9 73 35 68
19 -2 26 -10 28 -30z"/>
<path d="M1487 1734 c-30 -16 -30 -32 0 -84 12 -22 14 -22 10 -3 -3 15 4 27
24 42 32 24 39 61 12 61 -10 -1 -31 -8 -46 -16z m53 -8 c0 -14 -36 -46 -52
-46 -15 0 -8 39 10 49 25 15 42 13 42 -3z"/>
<path d="M2141 1395 c-206 -102 -371 -188 -368 -191 7 -7 757 358 757 369 0 4
-3 7 -8 7 -4 0 -175 -83 -381 -185z"/>
<path d="M3172 1640 c-18 -21 -114 -112 -215 -201 -277 -247 -290 -259 -284
-265 12 -12 505 436 529 479 17 33 4 27 -30 -13z"/>
</g>
</svg>
